<svg version="1.0" xmlns="http://www.w3.org/2000/svg"
 width="840.000000pt" height="324.000000pt" viewBox="0 0 840.000000 324.000000"
 preserveAspectRatio="xMidYMid meet">
<g transform="translate(0.000000,324.000000) scale(0.100000,-0.100000)" stroke="none">
<path fill="#2d2d2a" class="a" d="M4153 2811 c-109 -79 -170 -211 -189 -408 -3 -40 -7 -73 -8 -73 -1 0
-31 11 -67 25 -633 250 -1390 172 -2234 -229 -114 -54 -323 -169 -410 -225
l-50 -32 60 6 c33 3 229 23 435 45 508 53 751 70 1000 70 692 0 1091 -155
1250 -485 53 -110 70 -180 77 -320 10 -201 -30 -434 -118 -684 -17 -50 -29
-94 -26 -97 3 -3 22 3 44 14 68 35 176 63 263 69 96 6 199 -16 292 -63 27 -14
52 -23 55 -20 3 2 -13 60 -35 128 -90 275 -106 364 -107 593 0 161 3 188 24
255 87 280 297 458 641 543 179 44 300 58 565 64 287 6 641 -14 1000 -57 197
-24 577 -61 582 -57 15 16 -481 274 -694 361 -735 301 -1402 345 -1964 131
-50 -19 -93 -35 -95 -35 -2 0 -4 33 -4 73 0 84 -25 172 -73 257 -30 54 -146
180 -165 180 -5 0 -27 -13 -49 -29z"/>
</g>
</svg>
